<?xml version="1.0" standalone="no"?>
<!DOCTYPE svg PUBLIC "-//W3C//DTD SVG 20010904//EN"
 "http://www.w3.org/TR/2001/REC-SVG-20010904/DTD/svg10.dtd">
<svg version="1.0" xmlns="http://www.w3.org/2000/svg"
 width="1100.000000pt" height="650.000000pt" viewBox="0 0 1100.000000 650.000000"
 preserveAspectRatio="xMidYMid meet">
<metadata>
Created by potrace 1.15, written by Peter Selinger 2001-2017
</metadata>
<g transform="translate(0.000000,650.000000) scale(0.100000,-0.100000)"
fill="#000000" stroke="none">
<path d="M955 6213 c-37 -153 -69 -288 -72 -300 l-5 -23 667 0 c384 0 728 -5
813 -11 192 -14 342 -52 479 -119 84 -43 113 -63 171 -125 49 -51 82 -97 108
-152 37 -76 38 -80 38 -193 -1 -130 -12 -173 -93 -345 -44 -93 -55 -107 -152
-198 -197 -186 -418 -287 -721 -332 -203 -29 -628 -47 -628 -26 0 5 70 291
155 636 85 345 155 631 155 636 0 5 -220 9 -520 9 l-519 0 -10 -37 c-14 -51
-441 -1824 -441 -1830 0 -2 406 -2 903 0 985 4 1008 6 1277 65 172 38 580 182
730 257 229 115 443 268 591 421 73 77 166 203 246 334 50 82 99 245 113 376
14 131 -8 379 -45 509 -15 50 -27 99 -28 110 -3 29 25 25 40 -5 7 -14 225
-627 485 -1362 260 -736 475 -1338 478 -1338 3 1 543 613 1200 1361 l1195
1359 750 -3 c867 -5 913 -9 1105 -89 141 -60 182 -87 273 -181 118 -124 132
-159 131 -327 -1 -111 -4 -134 -28 -200 -55 -149 -111 -237 -222 -346 -98 -98
-108 -105 -260 -182 -88 -44 -190 -89 -227 -101 -131 -40 -366 -68 -646 -78
l-203 -6 6 30 c4 17 71 308 150 647 l143 616 -522 0 -523 0 -10 -42 c-6 -24
-104 -437 -217 -918 -113 -481 -208 -883 -211 -893 -6 -17 30 -18 903 -14 992
5 1008 5 1273 66 251 57 373 93 499 148 612 266 1012 631 1131 1030 63 214 69
381 19 553 -42 147 -88 219 -222 354 -233 234 -460 356 -837 451 -303 76 -497
85 -1785 85 l-1071 0 -169 -191 c-94 -105 -201 -232 -238 -283 -38 -50 -90
-113 -117 -141 -26 -27 -61 -71 -79 -97 -17 -26 -55 -74 -85 -105 -103 -113
-268 -316 -397 -491 -73 -97 -153 -202 -179 -232 -26 -30 -69 -92 -95 -138
l-48 -83 -33 158 c-18 87 -42 179 -53 204 -11 25 -36 100 -55 166 -19 67 -64
199 -99 294 -36 96 -69 198 -76 227 -6 29 -26 92 -45 140 -18 48 -45 130 -60
182 -15 52 -41 122 -57 154 -16 33 -29 68 -29 78 0 10 -12 50 -27 88 l-27 70
-1987 0 -1987 0 -67 -277z"/>
<path d="M4255 3143 c-33 -1 -319 -14 -635 -28 -316 -14 -665 -34 -775 -45
-110 -11 -288 -26 -395 -35 -533 -42 -973 -102 -1420 -195 -413 -85 -462 -98
-623 -167 -232 -98 -284 -135 -307 -215 -20 -71 33 -154 130 -203 158 -80 336
-147 465 -175 264 -57 623 -130 740 -149 229 -38 693 -92 1005 -116 107 -9
285 -24 395 -35 110 -11 498 -34 863 -50 615 -28 723 -30 1502 -30 778 0 886
2 1502 30 365 16 755 39 868 50 113 11 293 27 400 35 259 21 777 80 970 111
153 24 572 109 789 159 123 28 262 80 408 153 78 39 101 56 131 97 75 102 39
186 -114 267 -117 62 -298 133 -404 158 -185 43 -664 140 -815 164 -181 29
-709 89 -920 106 -77 6 -259 22 -405 35 -146 14 -512 37 -815 52 -505 24 -630
27 -1515 28 -531 1 -992 0 -1025 -2z m1230 -513 c172 -13 339 -37 453 -66 128
-32 242 -103 242 -151 0 -53 -159 -142 -300 -167 -47 -8 -122 -22 -167 -30
-192 -36 -662 -53 -978 -37 -263 14 -324 20 -525 57 -283 52 -429 154 -331
231 114 91 338 141 751 169 209 14 631 11 855 -6z"/>
<path d="M9946 1894 c-12 -30 -5 -34 59 -34 77 0 72 19 45 -184 -26 -193 -26
-196 4 -196 29 0 29 1 51 180 8 69 18 142 21 163 l6 37 64 0 c62 0 64 1 64 25
l0 25 -154 0 c-131 0 -155 -2 -160 -16z"/>
<path d="M10311 1702 c-39 -115 -71 -212 -71 -216 0 -4 10 -6 22 -4 18 2 30
28 77 160 30 86 58 155 60 152 3 -3 19 -73 36 -157 l31 -152 59 110 c32 61 71
133 86 160 l29 50 0 -163 0 -163 28 3 27 3 0 210 0 210 -27 3 c-25 3 -32 -6
-100 -132 -40 -75 -76 -136 -80 -136 -3 0 -21 61 -39 135 -45 189 -48 188
-138 -73z"/>
<path d="M1080 1033 c17 -32 149 -274 293 -538 l262 -480 86 -3 c61 -2 89 1
96 10 9 10 530 948 582 1046 l12 22 -164 0 -163 0 -168 -345 c-93 -190 -172
-345 -176 -345 -3 0 -89 155 -190 345 l-184 345 -159 0 -158 0 31 -57z"/>
<path d="M3140 550 l0 -540 145 0 145 0 0 540 0 540 -145 0 -145 0 0 -540z"/>
<path d="M4282 554 l3 -539 280 1 c222 1 298 5 365 18 126 26 218 62 280 110
30 24 74 55 96 70 48 31 104 108 133 184 30 76 29 219 -1 309 -19 53 -37 80
-103 151 -73 79 -89 90 -190 138 -165 78 -216 86 -568 92 l-297 4 2 -538z
m561 340 c142 -37 249 -112 289 -202 28 -67 28 -196 -1 -273 -52 -137 -230
-219 -475 -219 l-66 0 0 355 0 355 96 0 c55 0 122 -7 157 -16z"/>
<path d="M6260 550 l0 -540 400 0 400 0 0 95 0 95 -250 0 -250 0 0 145 0 145
235 0 235 0 0 90 0 90 -235 0 -235 0 0 120 0 120 250 0 250 0 0 90 0 90 -400
0 -400 0 0 -540z"/>
<path d="M8465 1084 c-218 -24 -385 -103 -526 -251 -57 -58 -70 -79 -88 -137
-42 -137 -23 -273 56 -392 45 -68 206 -190 292 -222 236 -86 536 -86 772 0 86
32 247 154 292 222 82 123 100 265 52 400 -20 56 -37 82 -87 134 -114 116
-256 196 -401 226 -79 16 -289 28 -362 20z m315 -232 c185 -77 252 -156 252
-299 -1 -78 -17 -111 -100 -196 -56 -57 -80 -72 -147 -99 -142 -56 -325 -49
-456 17 -47 25 -144 126 -173 184 -27 51 -24 155 6 217 42 88 203 191 337 214
85 15 188 1 281 -38z"/>
</g>
</svg>
