<?xml version="1.0" standalone="no"?>
<!DOCTYPE svg PUBLIC "-//W3C//DTD SVG 20010904//EN"
 "http://www.w3.org/TR/2001/REC-SVG-20010904/DTD/svg10.dtd">
<svg version="1.0" xmlns="http://www.w3.org/2000/svg"
 width="750.000000pt" height="750.000000pt" viewBox="0 0 750.000000 750.000000"
 preserveAspectRatio="xMidYMid meet">
<metadata>
Created by potrace 1.11, written by Peter Selinger 2001-2013
</metadata>
<g transform="translate(0.000000,750.000000) scale(0.100000,-0.100000)"
fill="#000000" stroke="none">
<path d="M0 3750 l0 -3750 3750 0 3750 0 0 750 0 750 -3000 0 -3000 0 0 3000
0 3000 -750 0 -750 0 0 -3750z"/>
<path d="M2931 7188 c-5 -13 -134 -324 -286 -692 -152 -367 -273 -672 -268
-676 7 -8 654 -278 675 -283 13 -3 581 1374 571 1383 -4 5 -156 70 -338 145
-181 75 -333 139 -337 141 -4 3 -12 -5 -17 -18z"/>
<path d="M4982 5517 c-287 -287 -522 -527 -522 -532 0 -13 512 -525 525 -525
13 0 1055 1042 1055 1055 0 13 -512 525 -525 525 -6 0 -245 -235 -533 -523z"/>
<path d="M6230 3345 c-377 -156 -684 -288 -683 -293 5 -21 275 -668 283 -675
7 -8 1364 545 1381 562 8 8 -273 683 -286 687 -5 2 -318 -124 -695 -281z"/>
</g>
</svg>
